# xmcd CD database file
#
# Track frame offsets:
#	150
#	20260
#	44249
#	69683
#	83386
#	101651
#	120446
#	145471
#
# Disc length: 2110 seconds
#
# Revision: 0
# Processed by: cddbd v1.5.1PL2 Copyright (c) Steve Scherf et al.
# Submitted via: CDex 1.51
#
DISCID=69083c08
DTITLE=5ta Avenida - Los Confinados
DYEAR=2003
DGENRE=Salsa
TTITLE0=Los Confinados
TTITLE1=Nina
TTITLE2=Delirio
TTITLE3=Si Por Mi Llueve
TTITLE4=Night In Tunisia
TTITLE5=Como Te Quiero A Ti
TTITLE6=Empeño
TTITLE7=Mambo Inn
EXTD=YEAR: 2003
EXTT0=
EXTT1=
EXTT2=
EXTT3=
EXTT4=
EXTT5=
EXTT6=
EXTT7=
PLAYORDER=
